<svg width="143" height="172" xmlns="http://www.w3.org/2000/svg" xmlns:xlink="http://www.w3.org/1999/xlink" xml:space="preserve" overflow="hidden"><defs><clipPath id="clip0"><rect x="236" y="508" width="143" height="172"/></clipPath></defs><g clip-path="url(#clip0)" transform="translate(-236 -508)"><path d="M242.268 508 242.83 508.241 242.83 508 262.732 508C266.194 508 269 510.91 269 514.5 269 518.09 266.194 521 262.732 521L242.83 521 242.83 520.759 242.268 521C238.807 521 236 518.09 236 514.5 236 510.91 238.807 508 242.268 508Z" fill="#FF0000" fill-rule="evenodd" fill-opacity="0.301961"/><path d="M242.268 528 242.83 528.241 242.83 528 262.732 528C266.194 528 269 530.91 269 534.5 269 538.09 266.194 541 262.732 541L242.83 541 242.83 540.759 242.268 541C238.807 541 236 538.09 236 534.5 236 530.91 238.807 528 242.268 528Z" fill="#FF0000" fill-rule="evenodd" fill-opacity="0.301961"/><path d="M242.268 548 242.83 548.241 242.83 548 262.732 548C266.194 548 269 550.91 269 554.5 269 558.09 266.194 561 262.732 561L242.83 561 242.83 560.759 242.268 561C238.807 561 236 558.09 236 554.5 236 550.91 238.807 548 242.268 548Z" fill="#FF0000" fill-rule="evenodd" fill-opacity="0.301961"/><path d="M242.268 568 242.83 568.241 242.83 568 262.732 568C266.194 568 269 570.91 269 574.5 269 578.09 266.194 581 262.732 581L242.83 581 242.83 580.759 242.268 581C238.807 581 236 578.09 236 574.5 236 570.91 238.807 568 242.268 568Z" fill="#FF0000" fill-rule="evenodd" fill-opacity="0.301961"/><path d="M242.268 588 242.83 588.241 242.83 588 262.732 588C266.194 588 269 590.91 269 594.5 269 598.09 266.194 601 262.732 601L242.83 601 242.83 600.759 242.268 601C238.807 601 236 598.09 236 594.5 236 590.91 238.807 588 242.268 588Z" fill="#FF0000" fill-rule="evenodd" fill-opacity="0.301961"/><path d="M242.268 608 242.83 608.241 242.83 608 262.732 608C266.194 608 269 610.91 269 614.5 269 618.09 266.194 621 262.732 621L242.83 621 242.83 620.759 242.268 621C238.807 621 236 618.09 236 614.5 236 610.91 238.807 608 242.268 608Z" fill="#FF0000" fill-rule="evenodd" fill-opacity="0.301961"/><path d="M242.268 627 242.83 627.241 242.83 627 262.732 627C266.194 627 269 629.91 269 633.5 269 637.09 266.194 640 262.732 640L242.83 640 242.83 639.759 242.268 640C238.807 640 236 637.09 236 633.5 236 629.91 238.807 627 242.268 627Z" fill="#FF0000" fill-rule="evenodd" fill-opacity="0.301961"/><path d="M242.268 647 242.83 647.241 242.83 647 262.732 647C266.194 647 269 649.91 269 653.5 269 657.09 266.194 660 262.732 660L242.83 660 242.83 659.759 242.268 660C238.807 660 236 657.09 236 653.5 236 649.91 238.807 647 242.268 647Z" fill="#FF0000" fill-rule="evenodd" fill-opacity="0.301961"/><path d="M242.268 667 242.83 667.241 242.83 667 262.732 667C266.194 667 269 669.91 269 673.5 269 677.09 266.194 680 262.732 680L242.83 680 242.83 679.759 242.268 680C238.807 680 236 677.09 236 673.5 236 669.91 238.807 667 242.268 667Z" fill="#FF0000" fill-rule="evenodd" fill-opacity="0.301961"/><path d="M297.268 508 297.83 508.241 297.83 508 317.732 508C321.194 508 324 510.91 324 514.5 324 518.09 321.194 521 317.732 521L297.83 521 297.83 520.759 297.268 521C293.806 521 291 518.09 291 514.5 291 510.91 293.806 508 297.268 508Z" fill="#FF0000" fill-rule="evenodd" fill-opacity="0.301961"/><path d="M297.268 528 297.83 528.241 297.83 528 317.732 528C321.194 528 324 530.91 324 534.5 324 538.09 321.194 541 317.732 541L297.83 541 297.83 540.759 297.268 541C293.806 541 291 538.09 291 534.5 291 530.91 293.806 528 297.268 528Z" fill="#FF0000" fill-rule="evenodd" fill-opacity="0.301961"/><path d="M297.268 548 297.83 548.241 297.83 548 317.732 548C321.194 548 324 550.91 324 554.5 324 558.09 321.194 561 317.732 561L297.83 561 297.83 560.759 297.268 561C293.806 561 291 558.09 291 554.5 291 550.91 293.806 548 297.268 548Z" fill="#FF0000" fill-rule="evenodd" fill-opacity="0.301961"/><path d="M297.268 568 297.83 568.241 297.83 568 317.732 568C321.194 568 324 570.91 324 574.5 324 578.09 321.194 581 317.732 581L297.83 581 297.83 580.759 297.268 581C293.806 581 291 578.09 291 574.5 291 570.91 293.806 568 297.268 568Z" fill="#FF0000" fill-rule="evenodd" fill-opacity="0.301961"/><path d="M297.268 588 297.83 588.241 297.83 588 317.732 588C321.194 588 324 590.91 324 594.5 324 598.09 321.194 601 317.732 601L297.83 601 297.83 600.759 297.268 601C293.806 601 291 598.09 291 594.5 291 590.91 293.806 588 297.268 588Z" fill="#FF0000" fill-rule="evenodd" fill-opacity="0.301961"/><path d="M297.268 608 297.83 608.241 297.83 608 317.732 608C321.194 608 324 610.91 324 614.5 324 618.09 321.194 621 317.732 621L297.83 621 297.83 620.759 297.268 621C293.806 621 291 618.09 291 614.5 291 610.91 293.806 608 297.268 608Z" fill="#FF0000" fill-rule="evenodd" fill-opacity="0.301961"/><path d="M297.268 627 297.83 627.241 297.83 627 317.732 627C321.194 627 324 629.91 324 633.5 324 637.09 321.194 640 317.732 640L297.83 640 297.83 639.759 297.268 640C293.806 640 291 637.09 291 633.5 291 629.91 293.806 627 297.268 627Z" fill="#FF0000" fill-rule="evenodd" fill-opacity="0.301961"/><path d="M297.268 647 297.83 647.241 297.83 647 317.732 647C321.194 647 324 649.91 324 653.5 324 657.09 321.194 660 317.732 660L297.83 660 297.83 659.759 297.268 660C293.806 660 291 657.09 291 653.5 291 649.91 293.806 647 297.268 647Z" fill="#FF0000" fill-rule="evenodd" fill-opacity="0.301961"/><path d="M297.268 667 297.83 667.241 297.83 667 317.732 667C321.194 667 324 669.91 324 673.5 324 677.09 321.194 680 317.732 680L297.83 680 297.83 679.759 297.268 680C293.806 680 291 677.09 291 673.5 291 669.91 293.806 667 297.268 667Z" fill="#FF0000" fill-rule="evenodd" fill-opacity="0.301961"/><path d="M352.268 508 352.83 508.241 352.83 508 372.732 508C376.194 508 379 510.91 379 514.5 379 518.09 376.194 521 372.732 521L352.83 521 352.83 520.759 352.268 521C348.806 521 346 518.09 346 514.5 346 510.91 348.806 508 352.268 508Z" fill="#FF0000" fill-rule="evenodd" fill-opacity="0.301961"/><path d="M352.268 528 352.83 528.241 352.83 528 372.732 528C376.194 528 379 530.91 379 534.5 379 538.09 376.194 541 372.732 541L352.83 541 352.83 540.759 352.268 541C348.806 541 346 538.09 346 534.5 346 530.91 348.806 528 352.268 528Z" fill="#FF0000" fill-rule="evenodd" fill-opacity="0.301961"/><path d="M352.268 548 352.83 548.241 352.83 548 372.732 548C376.194 548 379 550.91 379 554.5 379 558.09 376.194 561 372.732 561L352.83 561 352.83 560.759 352.268 561C348.806 561 346 558.09 346 554.5 346 550.91 348.806 548 352.268 548Z" fill="#FF0000" fill-rule="evenodd" fill-opacity="0.301961"/><path d="M352.268 568 352.83 568.241 352.83 568 372.732 568C376.194 568 379 570.91 379 574.5 379 578.09 376.194 581 372.732 581L352.83 581 352.83 580.759 352.268 581C348.806 581 346 578.09 346 574.5 346 570.91 348.806 568 352.268 568Z" fill="#FF0000" fill-rule="evenodd" fill-opacity="0.301961"/><path d="M352.268 588 352.83 588.241 352.83 588 372.732 588C376.194 588 379 590.91 379 594.5 379 598.09 376.194 601 372.732 601L352.83 601 352.83 600.759 352.268 601C348.806 601 346 598.09 346 594.5 346 590.91 348.806 588 352.268 588Z" fill="#FF0000" fill-rule="evenodd" fill-opacity="0.301961"/><path d="M352.268 608 352.83 608.241 352.83 608 372.732 608C376.194 608 379 610.91 379 614.5 379 618.09 376.194 621 372.732 621L352.83 621 352.83 620.759 352.268 621C348.806 621 346 618.09 346 614.5 346 610.91 348.806 608 352.268 608Z" fill="#FF0000" fill-rule="evenodd" fill-opacity="0.301961"/><path d="M352.268 627 352.83 627.241 352.83 627 372.732 627C376.194 627 379 629.91 379 633.5 379 637.09 376.194 640 372.732 640L352.83 640 352.83 639.759 352.268 640C348.806 640 346 637.09 346 633.5 346 629.91 348.806 627 352.268 627Z" fill="#FF0000" fill-rule="evenodd" fill-opacity="0.301961"/><path d="M352.268 647 352.83 647.241 352.83 647 372.732 647C376.194 647 379 649.91 379 653.5 379 657.09 376.194 660 372.732 660L352.83 660 352.83 659.759 352.268 660C348.806 660 346 657.09 346 653.5 346 649.91 348.806 647 352.268 647Z" fill="#FF0000" fill-rule="evenodd" fill-opacity="0.301961"/><path d="M352.268 667 352.83 667.241 352.83 667 372.732 667C376.194 667 379 669.91 379 673.5 379 677.09 376.194 680 372.732 680L352.83 680 352.83 679.759 352.268 680C348.806 680 346 677.09 346 673.5 346 669.91 348.806 667 352.268 667Z" fill="#FF0000" fill-rule="evenodd" fill-opacity="0.301961"/></g></svg>