<svg width="457" height="39" xmlns="http://www.w3.org/2000/svg" xmlns:xlink="http://www.w3.org/1999/xlink" xml:space="preserve" overflow="hidden"><defs><clipPath id="clip0"><rect x="1651" y="658" width="457" height="39"/></clipPath></defs><g clip-path="url(#clip0)" transform="translate(-1651 -658)"><path d="M1651 677.5C1651 666.73 1659.73 658 1670.5 658 1681.27 658 1690 666.73 1690 677.5 1690 688.27 1681.27 697 1670.5 697 1659.73 697 1651 688.27 1651 677.5Z" fill="#FF0000" fill-rule="evenodd" fill-opacity="0.301961"/><path d="M2069 677.5C2069 666.73 2077.73 658 2088.5 658 2099.27 658 2108 666.73 2108 677.5 2108 688.27 2099.27 697 2088.5 697 2077.73 697 2069 688.27 2069 677.5Z" fill="#FF0000" fill-rule="evenodd" fill-opacity="0.301961"/></g></svg>