<svg width="182" height="39" xmlns="http://www.w3.org/2000/svg" xmlns:xlink="http://www.w3.org/1999/xlink" xml:space="preserve" overflow="hidden"><defs><clipPath id="clip0"><rect x="643" y="834" width="182" height="39"/></clipPath></defs><g clip-path="url(#clip0)" transform="translate(-643 -834)"><path d="M643 853.5C643 842.73 651.731 834 662.5 834 673.27 834 682 842.73 682 853.5 682 864.27 673.27 873 662.5 873 651.731 873 643 864.27 643 853.5Z" fill="#FF0000" fill-rule="evenodd" fill-opacity="0.301961"/><path d="M786 853.5C786 842.73 794.731 834 805.5 834 816.27 834 825 842.73 825 853.5 825 864.27 816.27 873 805.5 873 794.731 873 786 864.27 786 853.5Z" fill="#FF0000" fill-rule="evenodd" fill-opacity="0.301961"/></g></svg>